<svg id="Capa_1" data-name="Capa 1" xmlns="http://www.w3.org/2000/svg" viewBox="0 0 1024 1024"><title>logo</title><path d="M464.22,586.17h0a33.81,33.81,0,0,1-33.81-33.68l-.53-129.37L370.36,541.19a26.69,26.69,0,0,1-23.85,14.68h0a26.68,26.68,0,0,1-23.7-14.41l-59-113.79V552.19a34,34,0,0,1-34,34h0a34,34,0,0,1-34-34V316.46a37.61,37.61,0,0,1,37.61-37.61h0a37.62,37.62,0,0,1,33.43,20.38l81,157.18,78.6-156.87A37.47,37.47,0,0,1,460,278.85h0a37.47,37.47,0,0,1,37.47,37.38l.57,236A33.81,33.81,0,0,1,464.22,586.17Z" fill="#008dd5"/><path d="M717.9,308.69V552a33.32,33.32,0,0,1-66.63,0V463.63H563A33.31,33.31,0,0,1,563,397h88.31V308.69a33.32,33.32,0,0,1,66.63,0Z" fill="#25cadf"/><path d="M806.21,397H750.43a10.37,10.37,0,0,0-10.37,10.37v45.88a10.37,10.37,0,0,0,10.37,10.37h55.78a33.31,33.31,0,0,0,33.31-33.31h0A33.31,33.31,0,0,0,806.21,397Z" fill="#25cadf"/><polygon points="295.8 743.91 280.61 743.91 280.49 686.63 252.07 734.03 244.91 734.03 216.49 687.36 216.49 743.91 201.18 743.91 201.18 657.44 214.39 657.44 248.71 714.74 282.46 657.44 295.68 657.44 295.8 743.91" fill="#25cadf"/><polygon points="384 730.45 384 743.91 319.15 743.91 319.15 657.44 382.27 657.44 382.27 670.9 335.21 670.9 335.21 693.39 376.96 693.39 376.96 706.6 335.21 706.6 335.21 730.45 384 730.45" fill="#25cadf"/><path d="M401.91,743.91V657.44h37.8q14.09,0,24.71,5.44A40.68,40.68,0,0,1,481,678q5.92,9.63,5.93,22.73T481,723.34a40.64,40.64,0,0,1-16.55,15.14q-10.64,5.43-24.71,5.43ZM418,730.32h21a36.12,36.12,0,0,0,16.8-3.7,26.64,26.64,0,0,0,11.05-10.38,33.13,33.13,0,0,0,0-31.19,26.81,26.81,0,0,0-11.05-10.31A36,36,0,0,0,439,671H418Z" fill="#25cadf"/><path d="M503.94,743.91V657.44H520v86.47Z" fill="#25cadf"/><polygon points="628.79 657.44 628.79 743.91 612.73 743.91 612.73 706.85 568.01 706.85 568.01 743.91 551.95 743.91 551.95 657.44 568.01 657.44 568.01 693.14 612.73 693.14 612.73 657.44 628.79 657.44" fill="#008dd5"/><path d="M689.2,745.15q-17.79,0-27.86-10t-10.07-28.9v-48.8h16.06v48.18q0,13.33,5.74,19.39t16.25,6.06q10.5,0,16.18-6.06t5.68-19.39V657.44H727v48.8q0,18.88-10.07,28.9T689.2,745.15Z" fill="#008dd5"/><path d="M822.91,707.84a21.62,21.62,0,0,0-9.2-7.72,28.89,28.89,0,0,0-3.06-1.18,20.42,20.42,0,0,0,11.21-19,19.43,19.43,0,0,0-8.15-16.37q-8.15-6.1-23.72-6.11H749.48v86.47h43q16.8,0,25.33-6.18t8.52-17.29A22.1,22.1,0,0,0,822.91,707.84ZM765.53,670h22.73q8.4,0,12.91,3t4.51,9q0,5.94-4.51,8.9t-12.91,3H765.53Zm39.78,58.31q-4.81,3-13.83,3h-26V706.36h26q9,0,13.83,3t4.82,9.45Q810.13,725.39,805.31,728.35Z" fill="#008dd5"/></svg>